<svg xmlns="http://www.w3.org/2000/svg" version="1.1" xmlns:xlink="http://www.w3.org/1999/xlink" width="512" height="512" x="0" y="0" viewBox="0 0 60 60" style="enable-background:new 0 0 512 512" xml:space="preserve" class=""><g><path d="m15.625 43.058-3.36.748A7.951 7.951 0 0 0 6 51.615v1.618a5.012 5.012 0 0 0 3.681 4.825C12.926 58.943 19.085 60 30 60s17.074-1.057 20.319-1.942A5.012 5.012 0 0 0 54 53.233v-1.618a7.951 7.951 0 0 0-6.265-7.809l-3.36-.748-4.584-2.749-1.843-4.3.6-.691.451.121a5.685 5.685 0 0 0 1.446.189A5.567 5.567 0 0 0 46 30.06v-1.2A4 4 0 0 0 49 25v-4a4 4 0 0 0-3-3.858V16a16 16 0 0 0-32 0v1.142A4 4 0 0 0 11 21v4a4 4 0 0 0 4 4h2a2.966 2.966 0 0 0 1-.184v.345a5.888 5.888 0 0 0 1.458 3.881l2.6 2.965-1.844 4.3Zm5.091-.721a15.085 15.085 0 0 0 7.115 5.147 12.219 12.219 0 0 0-2.371 3.248 21.5 21.5 0 0 1-8-6.442ZM52 51.615v1.618a3.006 3.006 0 0 1-2.208 2.9C46.665 56.982 40.693 58 30 58s-16.665-1.018-19.792-1.872A3.006 3.006 0 0 1 8 53.233v-1.618a5.961 5.961 0 0 1 4.7-5.856l2.874-.639c1.127 1.513 4.544 5.666 9.382 7.564a1.752 1.752 0 0 0 2.216-.894A9.965 9.965 0 0 1 30 48.232a9.975 9.975 0 0 1 2.83 3.557 1.758 1.758 0 0 0 1.589 1.011 1.706 1.706 0 0 0 .628-.119c4.837-1.9 8.254-6.051 9.381-7.564l2.874.639A5.961 5.961 0 0 1 52 51.615Zm-17.46-.883a12.188 12.188 0 0 0-2.371-3.248 15.085 15.085 0 0 0 7.115-5.147l3.256 1.953a21.507 21.507 0 0 1-8 6.442Zm8.07-17.847a3.536 3.536 0 0 1-2.542.7l.474-.542A5.892 5.892 0 0 0 42 29.161v-.345A2.966 2.966 0 0 0 43 29h1v1.06a3.54 3.54 0 0 1-1.39 2.825ZM40 16.985c-9.187-.276-11.059-4.327-11.071-4.356A1 1 0 0 0 28 12a11.468 11.468 0 0 0-7.83 3.106C21.065 10.143 25.348 6 30 6a10.011 10.011 0 0 1 10 10ZM47 21v4a2 2 0 0 1-2 2h-2a1 1 0 0 1-1-1v-6a1 1 0 0 1 1-1h2a2 2 0 0 1 2 2ZM30 2a14.015 14.015 0 0 1 14 14v1h-1a2.966 2.966 0 0 0-1 .184V16A12.013 12.013 0 0 0 30 4c-6.393 0-12 6.075-12 13v.184A2.966 2.966 0 0 0 17 17h-1v-1A14.015 14.015 0 0 1 30 2ZM17 27h-2a2 2 0 0 1-2-2v-4a2 2 0 0 1 2-2h2a1 1 0 0 1 1 1v6a1 1 0 0 1-1 1Zm3 2.161V18.3a9.994 9.994 0 0 1 7.428-4.281c.944 1.429 4.052 4.715 12.572 4.959v10.183a3.893 3.893 0 0 1-.964 2.565l-1.17 1.337-2.8-.748.03-.124a2 2 0 0 0-1.481-2.411l-2.917-.7a3 3 0 0 0-1.398 5.838l2.917.7a2.033 2.033 0 0 0 .47.056 1.982 1.982 0 0 0 1.9-1.414l1.809.484L34.9 36.45A4.536 4.536 0 0 1 31.486 38h-2.972a4.541 4.541 0 0 1-3.414-1.55l-4.134-4.725A3.89 3.89 0 0 1 20 29.161Zm13.15 2.565-.464 1.944-2.918-.7a1 1 0 1 1 .465-1.945Zm-9.558 6.041A6.536 6.536 0 0 0 28.514 40h2.972a6.537 6.537 0 0 0 4.922-2.233l.08-.091 1.377 3.215A13 13 0 0 1 30 45.985a13 13 0 0 1-7.865-5.094l1.378-3.215Z" fill="#042f4b" opacity="1" data-original="#000000"></path></g></svg>