<svg xmlns="http://www.w3.org/2000/svg" xmlns:xlink="http://www.w3.org/1999/xlink" version="1.1" width="512" height="512" x="0" y="0" viewBox="0 0 512 512" style="enable-background:new 0 0 512 512;" xml:space="preserve" class=""><link xmlns="" type="text/css" rel="stylesheet" id="dark-mode-custom-link"/><link xmlns="" type="text/css" rel="stylesheet" id="dark-mode-general-link"/><style xmlns="" lang="en" type="text/css" id="dark-mode-custom-style"/><style xmlns="" lang="en" type="text/css" id="dark-mode-native-style"/><style xmlns="" lang="en" type="text/css" id="dark-mode-native-sheet"/><script xmlns=""/><g><path d="M467 151.06h-31.421C408.855 87.606 350.01 41.493 282.265 32.686c-67.134-8.95-133.096 16.89-176.25 68.906-12.686 15.293-22.749 31.919-30.117 49.468H45c-24.814 0-45 20.186-45 45v60c0 24.814 20.186 45 45 45h61.601l-6.445-19.673c-18.765-57.305-8.203-115.855 28.96-160.635 36.519-44.019 92.285-65.801 149.253-58.33 60.247 7.848 112.542 50.455 133.262 108.574l.126.337a129.933 129.933 0 0 1 7.031 27.393c4.497 28.052 1.934 56.484-7.397 82.222l-.066.179C388.164 346.886 325.87 391.06 256.293 391.06c-24.976 0-45.293 20.186-45.293 45s20.186 45 45 45 45-20.186 45-45v-20.23c59.894-14.236 110.202-56.693 134.383-114.771H467c24.814 0 45-20.186 45-45v-60c0-24.814-20.186-44.999-45-44.999z" fill="#125166" opacity="1" data-original="#000000" class=""/><path d="M121 331.06v30h135c74.443 0 135-60.557 135-135s-60.557-135-135-135-135 60.557-135 135a134.921 134.921 0 0 0 28.828 83.394C146.21 322.095 134.667 331.06 121 331.06zm180-120h30v30h-30zm-60 0h30v30h-30zm-60 0h30v30h-30z" fill="#125166" opacity="1" data-original="#000000" class=""/></g><script xmlns=""/></svg>