<svg height="512" viewBox="0 0 32 32" width="512" xmlns="http://www.w3.org/2000/svg"><g id="_74-atm_money" data-name="74-atm money"><path d="m10.44 17.27a6.11 6.11 0 0 1 -.44-2.27v-8a6 6 0 0 1 11.14-3.09 1 1 0 1 1 -1.72 1 3.94 3.94 0 0 0 -3.42-1.91 4 4 0 0 0 -4 4v8a3.91 3.91 0 0 0 .3 1.51 1 1 0 0 1 -.93 1.38 1 1 0 0 1 -.93-.62zm6.56 8.73v3h4a1 1 0 0 1 0 2h-10a1 1 0 0 1 0-2h4v-3.07a11 11 0 0 1 -4-1.17l-4.19 5.82a1 1 0 0 1 -.81.42 1 1 0 0 1 -.58-.19 1 1 0 0 1 -.23-1.39l20-28a1 1 0 0 1 1.62 1.16l-4.81 6.74v5.68a6 6 0 0 1 -6 6 5.84 5.84 0 0 1 -2.07-.38l-1.79 2.5a9 9 0 0 0 3.86.88 9 9 0 0 0 9-9 1 1 0 0 1 2 0 11 11 0 0 1 -10 11zm3-13.83-4.85 6.79a4.09 4.09 0 0 0 .85.04 4 4 0 0 0 4-4zm-11.77 10.12a1 1 0 0 0 .77-1.63 9 9 0 0 1 -2-5.66 1 1 0 0 0 -2 0 11.07 11.07 0 0 0 2.45 6.92 1 1 0 0 0 .78.37z"/></g></svg>